# xmcd
#
# Track frame offsets:
#	150
#	14253
#	27522
#	39489
#	52915
#	68373
#	78879
#	90872
#	102323
#	116772
#	133416
#	144432
#
# Disc length: 2080 seconds
#
# Revision: 1
# Processed by: cddbd v1.5.2PL0 Copyright (c) Steve Scherf et al.
# Submitted via: audiograbber 1.83.01
#
DISCID=92081e0c
DTITLE=Klob'nstoana Musikanten - Mit neuem Schwung
DYEAR=1900
DGENRE=Folk
TTITLE0=Baritonexpress
TTITLE1=Der Bergfex
TTITLE2=Egerländer Musikantenmarsch
TTITLE3=Worldcup Polka
TTITLE4=Ciribiribin
TTITLE5=Auf der Hindenburghütt'n
TTITLE6=Beim Musikfest
TTITLE7=Hochzeit im Dorf
TTITLE8=Maderl komm her zu mir
TTITLE9=Gottfried auf Reisen
TTITLE10=Mexikanische Trompeten
TTITLE11=Bis bald auf wiederseh'n
EXTD=
EXTT0=
EXTT1=
EXTT2=
EXTT3=
EXTT4=
EXTT5=
EXTT6=
EXTT7=
EXTT8=
EXTT9=
EXTT10=
EXTT11=
PLAYORDER=
